<?xml version="1.0" standalone="no"?>
<!DOCTYPE svg PUBLIC "-//W3C//DTD SVG 20010904//EN"
 "http://www.w3.org/TR/2001/REC-SVG-20010904/DTD/svg10.dtd">
<svg version="1.0" xmlns="http://www.w3.org/2000/svg"
 width="300.000000pt" height="298.000000pt" viewBox="0 0 300.000000 298.000000"
 preserveAspectRatio="xMidYMid meet">
<metadata>
Created by potrace 1.10, written by Peter Selinger 2001-2011
</metadata>
<g transform="translate(0.000000,298.000000) scale(0.100000,-0.100000)"
fill="#000000" stroke="none">
<path d="M1202 2952 c-13 -2 -19 -8 -16 -14 4 -7 2 -8 -5 -4 -17 11 -112 -14
-104 -27 3 -6 1 -7 -6 -3 -18 11 -63 -2 -55 -16 4 -7 3 -8 -5 -4 -15 10 -83
-13 -76 -25 4 -5 -2 -6 -11 -2 -12 4 -15 3 -10 -5 4 -8 2 -10 -7 -6 -20 7
-113 -41 -226 -117 -91 -60 -281 -231 -281 -252 0 -6 12 0 28 14 26 23 26 23
-2 -8 -16 -18 -32 -31 -34 -28 -7 7 -42 -25 -42 -38 0 -5 8 -3 18 4 15 13 16
12 3 -4 -8 -9 -16 -15 -19 -12 -7 6 -32 -15 -32 -27 0 -5 6 -6 13 -2 7 4 9 3
4 -2 -5 -5 -14 -9 -20 -9 -5 0 -12 -6 -15 -14 -3 -9 0 -11 9 -6 8 5 11 4 6 -1
-5 -5 -14 -9 -20 -9 -5 0 -12 -6 -15 -14 -3 -9 0 -11 9 -6 8 5 11 4 6 -1 -5
-5 -14 -9 -20 -9 -5 0 -12 -6 -15 -14 -3 -9 0 -11 9 -6 8 5 11 4 6 -1 -5 -5
-13 -9 -19 -9 -25 0 -164 -312 -154 -347 2 -10 0 -16 -4 -13 -9 5 -30 -80 -51
-200 -18 -102 -15 -351 5 -465 18 -107 56 -241 65 -236 3 2 6 -9 7 -24 1 -38
99 -234 166 -335 96 -145 281 -321 443 -422 79 -50 198 -104 218 -99 9 2 15 0
12 -4 -3 -5 23 -18 57 -29 242 -80 569 -97 807 -41 117 28 212 60 206 70 -3 4
3 6 13 3 30 -7 228 100 343 186 319 239 527 597 578 990 13 98 15 335 3 327
-5 -3 -7 8 -4 23 6 42 -25 193 -63 308 -49 146 -155 350 -176 338 -4 -3 -11 0
-15 6 -5 8 -3 9 6 4 8 -5 11 -3 8 6 -3 8 -10 14 -16 14 -5 0 -14 4 -19 9 -5 5
-2 6 6 1 9 -5 12 -3 9 6 -3 8 -10 14 -16 14 -5 0 -14 4 -19 9 -5 5 -3 6 5 2 6
-4 12 -3 12 2 0 12 -25 33 -32 27 -3 -3 -13 5 -24 17 -15 18 -16 20 -1 9 34
-26 16 2 -43 68 -69 79 -196 187 -216 185 -8 -1 -12 2 -9 6 8 13 -53 52 -66
44 -8 -4 -9 -3 -5 4 8 13 -30 36 -44 27 -6 -4 -9 -1 -8 7 2 7 -5 12 -14 12
-10 -1 -16 1 -13 5 6 11 -105 62 -117 55 -6 -4 -8 -3 -5 4 14 22 -257 106
-314 97 -25 -4 -29 -3 -14 3 19 9 -514 13 -563 4z m436 -24 c34 -5 65 -14 68
-20 4 -5 11 -5 19 2 14 12 104 -7 117 -25 5 -6 8 -4 8 5 0 9 3 11 8 5 4 -5 18
-12 32 -13 24 -4 94 -41 76 -42 -13 0 14 -30 38 -41 19 -8 18 -8 -1 7 -13 9
-23 27 -23 41 l0 24 28 -21 c16 -12 35 -22 43 -23 21 -3 54 -30 57 -47 7 -28
19 -43 26 -31 4 6 2 11 -3 11 -6 0 -11 12 -11 26 l0 26 39 -31 c21 -17 44 -31
50 -31 6 0 11 -4 11 -10 0 -5 7 -10 15 -10 8 0 15 -5 15 -12 0 -6 3 -9 6 -5 5
5 79 -42 119 -75 5 -4 24 -20 40 -33 17 -14 38 -28 48 -31 10 -3 16 -11 14
-17 -5 -16 -45 -21 -61 -8 -8 6 -21 9 -30 5 -9 -3 -26 1 -39 9 -21 13 -25 13
-46 -4 -13 -11 -34 -19 -48 -19 -35 0 -73 42 -73 81 0 21 -10 43 -30 66 -36
41 -39 31 -5 -19 29 -43 30 -48 10 -48 -8 0 -14 -3 -14 -7 3 -20 -2 -24 -16
-13 -13 11 -14 10 -9 -4 5 -13 13 -16 31 -11 19 4 26 1 30 -15 6 -21 50 -50
78 -50 8 0 15 -7 15 -16 0 -9 7 -14 18 -12 9 2 17 12 17 23 0 29 26 36 82 22
35 -9 49 -17 51 -32 2 -15 1 -17 -6 -6 -15 21 -22 -3 -9 -29 22 -42 43 -47 71
-17 16 17 22 33 19 47 -3 12 0 20 7 20 6 0 10 -5 8 -12 -3 -7 17 -33 44 -60
26 -26 48 -52 48 -57 0 -6 6 -14 14 -18 32 -19 35 -47 10 -88 -13 -22 -24 -51
-23 -65 0 -21 2 -20 14 12 16 44 46 91 53 83 3 -3 -5 -23 -17 -46 -13 -22 -20
-43 -16 -47 3 -3 9 -1 13 5 6 9 11 7 19 -5 8 -14 7 -25 -3 -47 -14 -29 -14
-29 -9 -4 3 19 0 29 -12 33 -9 4 -18 4 -21 1 -3 -3 -1 -5 5 -5 5 0 10 -7 10
-15 0 -8 -5 -15 -10 -15 -6 0 -1 -10 10 -22 12 -13 23 -39 25 -58 1 -19 5 -37
8 -40 15 -14 41 -62 36 -67 -3 -3 -13 8 -23 26 -19 33 -28 38 -39 19 -4 -7 -3
-8 4 -4 9 5 11 -3 8 -27 -3 -19 2 -46 10 -62 18 -35 18 -35 -6 -35 -11 0 -20
-4 -20 -10 0 -5 7 -7 15 -4 10 4 15 0 15 -11 0 -12 -5 -15 -20 -10 -11 4 -20
2 -20 -4 0 -13 30 -14 49 -2 8 5 11 16 8 25 -8 20 -6 20 29 1 55 -29 71 -16
19 14 -27 16 -56 39 -63 50 -17 29 0 26 29 -5 26 -28 78 -59 85 -51 5 5 -28
32 -62 53 -11 7 -15 15 -9 24 7 11 10 11 19 -1 14 -18 61 -39 86 -39 23 0 43
-36 59 -105 36 -163 47 -330 23 -357 -9 -10 -10 -18 -4 -18 6 0 11 -8 11 -17
0 -10 1 -36 1 -58 1 -22 -4 -54 -10 -70 -14 -37 -12 -41 14 -37 20 3 20 3 -2
-13 -12 -9 -20 -20 -17 -25 3 -5 1 -11 -3 -14 -5 -3 -9 -20 -10 -39 -1 -18
-10 -55 -22 -81 -11 -26 -20 -54 -20 -62 0 -15 -61 -156 -71 -164 -3 -3 -12
-22 -18 -42 -13 -40 -27 -48 -78 -46 -43 1 -113 -46 -113 -77 0 -12 -6 -27
-13 -33 -20 -17 -67 -23 -67 -9 0 7 -4 6 -10 -3 -5 -8 -13 -15 -17 -15 -12 -1
-49 -24 -39 -25 5 0 -1 -8 -12 -19 -12 -10 -24 -29 -26 -42 -3 -13 -5 -26 -6
-29 -2 -3 -2 -8 -1 -13 0 -4 -23 -7 -53 -7 -43 0 -58 -5 -80 -25 -33 -30 -49
-69 -47 -117 1 -32 -10 -52 -29 -53 -9 0 -54 -35 -46 -35 5 0 1 -9 -9 -20 -10
-11 -21 -18 -24 -15 -4 2 -24 -12 -45 -31 -20 -19 -33 -34 -29 -34 4 0 0 -5
-10 -11 -9 -5 -22 -7 -29 -3 -7 4 -8 3 -4 -4 4 -7 -8 -15 -34 -22 -22 -5 -59
-15 -82 -22 -24 -6 -52 -13 -63 -15 -10 -2 -22 -7 -25 -12 -3 -5 -22 -9 -43
-9 -21 0 -44 -6 -52 -12 -12 -10 -15 -10 -15 3 0 12 -7 13 -35 7 -53 -12 -215
-12 -215 0 0 5 -7 10 -15 10 -9 0 -12 -6 -8 -17 5 -13 2 -15 -18 -9 -13 4 -53
12 -89 17 -36 5 -72 12 -80 15 -8 4 -23 8 -33 9 -11 1 -22 6 -25 11 -4 5 -16
9 -27 10 -38 2 -80 12 -117 27 -20 8 -40 12 -44 9 -4 -4 -5 0 -2 8 3 8 0 20
-6 27 -6 6 -24 28 -40 47 -15 20 -32 36 -37 36 -5 0 -23 12 -40 27 -23 21 -30
34 -27 55 3 15 1 25 -4 22 -4 -3 -8 2 -8 11 0 17 -46 60 -65 60 -5 0 -16 4
-24 9 -9 6 -12 5 -8 -1 4 -6 -2 -13 -13 -16 -11 -3 -20 -1 -20 5 0 5 -4 6 -10
3 -12 -8 -63 42 -55 54 3 5 1 12 -5 16 -5 3 -10 12 -10 18 0 7 4 6 11 -3 9
-12 10 -11 4 5 -4 11 -8 27 -10 36 -9 46 -70 119 -98 119 -12 0 -17 5 -14 13
3 7 -8 22 -23 32 -16 11 -31 32 -34 48 -3 16 -15 40 -25 53 -14 18 -17 32 -12
52 10 34 -11 87 -39 102 -32 17 -76 15 -95 -4 -11 -10 -25 -14 -37 -10 -11 3
-28 7 -37 8 -15 3 -54 99 -66 166 -2 14 -11 58 -18 99 -16 83 -20 358 -6 436
4 28 11 64 13 80 11 63 19 90 29 103 9 12 13 29 16 82 1 20 3 22 11 10 7 -11
10 -7 10 18 0 48 37 81 89 80 24 0 49 -7 57 -16 24 -24 91 -19 114 8 11 13 21
27 21 32 1 4 2 13 3 19 0 6 10 17 20 25 11 8 14 14 8 14 -7 0 -12 5 -12 11 0
6 6 9 13 6 10 -4 13 2 10 17 -3 13 2 30 11 39 9 8 13 23 10 31 -4 11 2 19 17
25 13 5 18 10 12 10 -7 1 -13 5 -13 11 0 5 6 7 14 4 10 -4 13 3 12 25 -2 38
-12 49 -21 21 -4 -11 -17 -28 -30 -36 -20 -13 -22 -19 -12 -34 15 -25 -13 -85
-43 -95 -17 -6 -20 -12 -15 -32 8 -35 -11 -78 -41 -92 -34 -15 -48 -14 -67 7
-16 18 -98 24 -113 9 -4 -4 -19 -7 -33 -6 -25 0 -25 1 -5 9 12 5 33 33 48 64
15 31 31 56 36 56 6 0 10 5 10 10 0 19 70 122 147 217 80 99 151 163 161 146
9 -13 131 -13 157 0 11 5 24 16 28 24 5 7 12 11 17 8 5 -3 12 5 15 17 4 13 13
30 20 38 7 8 16 36 20 62 6 39 13 51 39 66 55 32 223 93 240 86 9 -4 16 -1 16
6 0 7 7 10 15 7 8 -4 17 -1 21 4 3 6 15 9 25 6 11 -3 16 -1 13 5 -4 5 2 8 13
6 11 -2 27 3 36 11 14 11 18 11 23 -3 5 -13 10 -14 20 -5 7 6 32 13 55 15 23
2 44 6 47 9 9 9 176 4 240 -7z m-828 -181 c-1 -40 -38 -106 -72 -127 -46 -28
-87 -34 -138 -20 l-43 12 29 24 c58 48 207 143 215 138 5 -3 9 -15 9 -27z
m1755 -239 c33 -34 53 -57 44 -50 -9 6 -19 10 -22 7 -4 -3 -5 -2 -2 2 3 4 -16
28 -42 55 -26 26 -45 48 -42 48 2 0 31 -28 64 -62z m-79 -21 c11 -6 10 -11 -4
-25 -15 -15 -19 -15 -33 -2 -14 14 -14 17 0 37 10 12 18 16 20 10 2 -7 10 -16
17 -20z m289 -277 c9 -17 11 -30 5 -30 -17 0 -11 -24 10 -43 11 -9 20 -13 20
-9 0 4 5 0 10 -8 5 -8 7 -23 4 -32 -3 -12 0 -18 10 -18 9 0 16 -2 16 -5 0 -2
9 -27 20 -55 l20 -50 -34 0 c-68 0 -146 88 -146 165 0 29 33 115 44 115 3 0
12 -13 21 -30z m192 -682 c-2 -18 -4 -4 -4 32 0 36 2 50 4 33 2 -18 2 -48 0
-65z m0 -130 c-2 -18 -4 -4 -4 32 0 36 2 50 4 33 2 -18 2 -48 0 -65z m-2644
-410 c36 -19 47 -41 45 -88 -2 -36 2 -50 21 -69 18 -18 22 -30 18 -56 -5 -29
-2 -34 19 -39 16 -4 29 -18 35 -35 6 -16 24 -34 44 -44 43 -21 67 -66 64 -121
-2 -33 2 -48 19 -66 12 -13 22 -27 22 -32 0 -4 7 -8 15 -8 54 0 95 -52 95
-119 l0 -40 -28 16 c-16 9 -36 35 -46 61 -16 37 -27 47 -68 65 -36 15 -50 26
-55 46 -7 31 -20 49 -46 63 -14 7 -17 7 -13 -1 15 -24 -9 -9 -47 31 -36 37
-38 42 -22 48 23 8 66 -26 58 -46 -3 -8 0 -14 6 -14 15 0 14 32 -3 55 -10 14
-25 19 -56 18 -31 -1 -49 5 -64 19 l-21 21 25 -6 c15 -3 33 0 44 9 11 8 30 14
43 14 29 0 30 21 1 46 l-23 19 19 -22 c22 -26 16 -28 -30 -11 -29 10 -51 44
-46 71 1 4 -2 7 -7 7 -5 0 -12 9 -16 19 -4 12 -14 20 -28 19 -48 -2 -59 2 -53
18 3 8 2 13 -3 10 -9 -6 -38 53 -33 67 1 5 -2 6 -8 2 -6 -3 -10 3 -10 16 0 12
-8 28 -17 35 -17 12 -16 13 5 14 13 0 31 -4 40 -9 13 -7 25 -4 42 10 29 22 34
23 63 7z m-5 -224 c23 -26 30 -78 12 -89 -5 -3 -11 -1 -11 4 -1 6 -2 17 -3 24
0 6 -11 16 -23 22 -12 5 -24 16 -26 25 -3 8 -8 23 -12 34 -7 16 -5 17 16 11
13 -3 34 -18 47 -31z m2426 -23 c4 -5 -13 -25 -35 -44 -23 -18 -42 -43 -43
-53 -1 -26 -78 -124 -116 -149 -16 -11 -30 -25 -30 -30 0 -16 -135 -127 -223
-185 -70 -45 -228 -130 -242 -130 -18 0 33 52 61 62 21 7 34 19 34 29 0 22 49
61 68 54 8 -3 20 -1 27 5 11 9 11 16 -1 38 -8 15 -14 35 -14 45 0 27 27 75 49
87 25 13 84 13 97 0 20 -20 44 0 44 37 0 74 51 123 129 123 38 0 40 2 47 35 9
48 54 85 104 85 21 0 41 -4 44 -9z m-1985 -335 c13 -14 23 -37 23 -57 1 -35
40 -82 78 -94 25 -8 70 -62 70 -84 0 -15 -13 -11 -85 26 -76 39 -85 47 -91 78
-3 18 -3 38 0 44 10 16 -32 91 -57 101 -20 8 -19 9 9 9 20 1 38 -7 53 -23z"/>
<path d="M1258 2840 c-10 -17 -28 -32 -45 -35 -44 -10 -58 -21 -55 -43 7 -46
-41 -102 -87 -102 -11 0 -25 -9 -31 -19 -6 -12 -24 -21 -43 -24 l-32 -4 34 -1
c22 -1 38 4 46 15 7 10 23 18 36 19 30 2 75 19 72 27 -4 15 31 86 41 84 6 -1
10 6 10 16 -1 10 5 17 15 17 9 0 22 9 29 21 10 16 20 20 41 16 34 -7 54 4 45
26 -11 29 -57 21 -76 -13z"/>
<path d="M1760 2780 c0 -13 7 -20 18 -20 24 0 32 8 25 26 -8 22 -43 17 -43 -6z"/>
<path d="M1420 2775 c-7 -8 -10 -26 -6 -40 6 -22 9 -23 31 -13 30 13 33 43 6
57 -14 8 -22 7 -31 -4z"/>
<path d="M2026 2760 c23 -40 12 -63 -22 -48 -19 9 -27 9 -37 -1 -9 -9 -6 -11
13 -9 18 2 25 -2 24 -14 -1 -14 2 -15 18 -5 28 17 34 55 13 75 -13 13 -16 13
-9 2z"/>
<path d="M1245 2721 c-16 -10 -32 -28 -33 -40 -2 -15 0 -21 7 -17 6 4 11 0 11
-10 0 -13 4 -12 21 7 11 13 17 17 13 9 -4 -9 -3 -12 2 -7 5 5 9 24 9 43 0 19
0 34 0 33 0 0 -13 -8 -30 -18z"/>
<path d="M1875 2689 c4 -6 1 -10 -6 -8 -36 4 -80 -2 -74 -11 3 -5 1 -10 -4
-10 -6 0 -11 7 -11 15 0 9 -10 15 -26 15 -21 0 -25 -4 -22 -22 2 -19 9 -23 38
-23 19 0 40 -3 47 -8 16 -10 12 -49 -4 -43 -15 6 -17 -12 -4 -32 6 -10 10 -8
14 9 4 13 9 20 13 16 12 -12 46 42 39 63 -4 11 -2 20 4 20 6 0 11 7 11 15 0 8
-5 15 -11 15 -5 0 -7 -5 -4 -11z"/>
<path d="M1976 2672 c-4 -7 -3 -12 2 -12 5 0 10 -11 10 -25 0 -15 -5 -24 -12
-22 -6 2 -10 12 -8 22 2 10 -1 14 -7 10 -17 -10 -13 -33 8 -45 24 -12 34 -13
26 -1 -3 5 2 17 11 25 8 9 11 16 6 16 -5 0 -13 10 -19 22 -6 15 -12 18 -17 10z"/>
<path d="M1187 2622 c-38 -41 0 -71 48 -40 17 11 23 18 15 15 -8 -2 -25 -7
-37 -11 -17 -6 -23 -3 -23 8 0 10 8 15 21 13 12 -1 24 4 27 12 3 10 -1 11 -18
6 -15 -5 -20 -4 -16 4 11 17 1 13 -17 -7z"/>
<path d="M860 2619 c0 -6 -12 -21 -26 -36 -14 -14 -23 -27 -20 -30 8 -9 45 17
51 36 3 11 14 21 23 23 13 3 12 5 -5 10 -13 3 -23 2 -23 -3z"/>
<path d="M1784 2558 c3 -11 0 -18 -8 -18 -7 0 -13 -7 -13 -15 0 -11 4 -12 14
-4 10 9 13 8 13 -5 0 -12 7 -14 29 -10 21 4 30 2 35 -11 5 -13 2 -16 -9 -11
-12 4 -13 2 -6 -13 12 -21 38 -34 52 -25 12 7 11 41 -2 49 -6 4 -9 0 -7 -10 2
-10 -3 -20 -10 -22 -9 -4 -11 2 -6 21 4 16 2 26 -5 26 -6 0 -11 11 -11 24 0
14 -4 28 -10 31 -6 3 -10 -5 -10 -19 0 -30 -21 -26 -39 7 -6 12 -9 14 -7 5z"/>
<path d="M768 2546 c-10 -7 -18 -22 -18 -32 0 -16 3 -15 25 8 35 38 31 53 -7
24z"/>
<path d="M856 2498 c-21 -29 -20 -37 6 -59 27 -24 36 -24 58 3 16 20 17 26 4
50 -18 34 -47 36 -68 6z m44 -3 c0 -8 5 -15 10 -15 6 0 3 -11 -6 -25 l-17 -26
-11 23 c-7 13 -8 25 -4 26 4 2 8 10 8 18 0 8 5 14 10 14 6 0 10 -7 10 -15z"/>
<path d="M1427 2479 c-18 -25 -12 -51 16 -68 19 -12 23 -11 45 15 l24 28 -26
23 c-33 28 -41 29 -59 2z m51 -19 c13 0 12 -3 -4 -18 -16 -15 -21 -16 -32 -5
-11 10 -11 15 0 27 7 8 15 10 16 5 2 -5 11 -9 20 -9z"/>
<path d="M755 2460 c-10 -44 -51 -72 -99 -68 -31 3 -45 -1 -65 -20 l-26 -25
30 15 c18 9 47 13 73 11 39 -4 46 -1 77 32 23 23 34 45 33 61 -3 33 -15 30
-23 -6z"/>
<path d="M1580 2401 c0 -6 7 -8 15 -5 10 4 15 0 15 -11 0 -12 -5 -15 -21 -10
-15 5 -19 4 -15 -4 4 -6 16 -11 27 -11 15 0 20 6 17 22 -3 22 -38 39 -38 19z"/>
<path d="M1987 2403 c-12 -11 -8 -41 6 -46 6 -2 20 1 29 7 12 7 14 15 7 28
-10 18 -30 24 -42 11z"/>
<path d="M2234 2388 c-30 -8 -63 -38 -97 -90 -9 -16 -22 -28 -28 -28 -17 0
-89 -60 -89 -74 0 -7 9 -21 19 -30 18 -16 25 -17 92 -3 62 13 74 13 86 1 32
-31 119 -5 151 44 24 38 31 44 84 75 41 24 68 52 68 71 0 2 -7 12 -16 20 -17
17 -89 23 -79 6 3 -6 -1 -7 -9 -4 -9 3 -16 1 -16 -4 0 -13 -41 -9 -95 10 -26
9 -51 11 -71 6z m87 -37 c16 -12 29 -16 39 -11 28 15 125 29 134 19 15 -14
-20 -45 -79 -71 -40 -17 -55 -30 -64 -54 -18 -48 -85 -70 -126 -40 -16 12 -26
12 -65 0 -52 -16 -120 -18 -120 -4 0 12 100 80 117 80 22 0 14 -16 -12 -28
-36 -17 -31 -33 8 -25 41 8 39 6 28 35 -6 16 -5 34 4 55 25 60 90 81 136 44z"/>
<path d="M2300 2312 c0 -10 5 -23 11 -29 8 -8 -5 -17 -50 -33 -33 -13 -58 -27
-55 -32 7 -11 55 -1 108 23 36 16 37 18 11 13 l-30 -5 30 15 c22 10 25 15 11
15 -12 1 -16 6 -12 16 3 8 1 15 -5 15 -6 0 -7 5 -4 10 3 6 1 10 -4 10 -6 0
-11 -8 -11 -18z"/>
<path d="M2368 2322 c-11 -5 -14 -12 -9 -20 6 -10 13 -11 34 -1 46 21 23 40
-25 21z"/>
<path d="M905 2378 c-16 -6 -40 -9 -53 -9 -13 0 -21 -3 -17 -8 3 -5 -1 -12 -7
-14 -7 -3 4 -6 25 -6 30 -1 37 -5 37 -21 0 -26 9 -25 45 5 l30 24 -44 1 c-50
0 -46 16 4 22 17 2 26 6 20 9 -5 3 -23 2 -40 -3z"/>
<path d="M500 2351 c0 -16 -57 -32 -96 -27 -29 5 -34 4 -19 -3 27 -13 82 -13
104 -1 21 11 36 40 21 40 -6 0 -10 -4 -10 -9z"/>
<path d="M1082 2324 c-32 -14 -33 -17 -27 -53 4 -22 2 -56 -4 -78 -7 -25 -7
-39 -1 -41 6 -2 10 -8 10 -14 0 -6 -8 -7 -17 -3 -15 5 -16 4 -5 -7 10 -10 17
-7 38 19 16 21 30 30 42 27 14 -5 15 -4 2 5 -20 14 -26 14 -42 -2 -11 -11 -13
-2 -13 55 0 66 1 68 28 74 15 3 27 9 27 14 0 5 8 11 18 13 14 4 14 5 -3 5 -11
0 -35 -6 -53 -14z"/>
<path d="M1912 2324 c2 -11 11 -20 22 -22 13 -3 17 1 14 14 -2 11 -11 20 -22
22 -13 3 -17 -1 -14 -14z"/>
<path d="M780 2324 c0 -20 25 -34 62 -34 21 0 38 5 38 10 0 6 -17 10 -38 10
-21 0 -43 5 -50 12 -7 7 -12 8 -12 2z"/>
<path d="M369 2296 c8 -9 20 -15 27 -12 7 3 16 1 19 -5 4 -5 11 -7 16 -4 5 4
9 1 9 -4 0 -6 4 -11 8 -11 5 0 9 6 9 14 0 8 -14 16 -31 19 -17 3 -40 9 -51 13
-18 7 -19 6 -6 -10z"/>
<path d="M1108 2301 c-16 -5 -28 -22 -28 -40 0 -8 8 -4 20 10 17 21 21 22 30
9 5 -8 10 -10 10 -4 0 12 47 13 65 2 6 -4 11 1 11 11 0 14 -9 17 -48 17 -26
-1 -54 -3 -60 -5z"/>
<path d="M688 2275 c-20 -14 -42 -25 -47 -25 -6 0 -11 -6 -11 -12 0 -7 -13
-22 -29 -33 -16 -10 -27 -23 -25 -27 3 -4 -2 -8 -11 -8 -8 0 -23 -16 -32 -35
-32 -66 16 -102 88 -65 13 7 57 46 96 88 62 63 72 79 70 105 -2 26 -7 31 -32
34 -20 2 -43 -5 -67 -22z m79 -11 c4 -11 -16 -37 -61 -83 -37 -37 -64 -70 -61
-74 3 -4 2 -5 -2 -2 -3 3 -21 -5 -40 -16 -27 -17 -36 -19 -48 -9 -8 7 -15 16
-15 21 0 29 174 179 206 179 8 0 17 -7 21 -16z"/>
<path d="M1392 2253 c-23 -23 -42 -71 -42 -105 0 -26 57 -86 89 -93 30 -6 81
9 81 24 0 5 -18 7 -40 4 -34 -5 -43 -2 -70 25 -37 38 -38 70 -4 111 20 24 34
31 62 31 l37 -1 -33 -14 c-72 -31 -56 -135 22 -135 31 0 31 1 11 18 -47 39
-50 49 -22 91 23 35 24 41 11 52 -27 22 -77 18 -102 -8z"/>
<path d="M2525 2220 c4 -19 13 -38 19 -42 8 -6 8 -10 0 -15 -6 -5 -14 -15 -17
-23 -4 -12 -6 -11 -6 3 -1 9 -5 17 -11 17 -14 0 -12 -16 3 -29 11 -8 18 -6 32
9 15 17 16 24 6 46 -9 21 -9 30 1 43 7 9 8 13 4 9 -5 -4 -16 -2 -24 4 -13 11
-14 8 -7 -22z"/>
<path d="M1178 2175 c2 -14 8 -28 13 -31 12 -7 11 -51 -1 -59 -5 -3 -15 -16
-22 -28 -11 -21 -10 -21 8 -7 36 27 43 40 34 71 -5 16 -5 29 0 29 5 0 11 -8
13 -17 3 -10 4 -4 4 12 -1 36 -13 55 -37 55 -13 0 -16 -6 -12 -25z"/>
<path d="M370 2160 c-15 -28 -9 -34 16 -16 14 11 16 17 7 26 -8 9 -14 7 -23
-10z"/>
<path d="M2417 2134 c-16 -16 -6 -34 19 -34 19 0 25 5 22 17 -3 19 -29 29 -41
17z"/>
<path d="M1740 2094 c8 -21 8 -30 -2 -37 -10 -6 -9 -7 4 -4 9 3 22 -1 28 -9
13 -15 40 -19 40 -6 0 5 9 17 19 29 19 20 19 20 -11 21 -23 1 -27 -2 -18 -13
12 -14 -3 -31 -19 -21 -16 10 0 46 23 51 53 11 58 14 18 11 -27 -3 -49 -11
-57 -23 -13 -16 -14 -16 -15 -1 0 9 -4 20 -10 23 -6 4 -6 -4 0 -21z"/>
<path d="M1232 2099 c4 -20 -56 -77 -78 -76 -11 1 -19 -4 -19 -13 0 -20 17
-19 50 5 62 44 80 74 54 90 -6 4 -9 1 -7 -6z"/>
<path d="M1084 2089 c-3 -6 -2 -15 4 -21 13 -13 32 -2 32 18 0 16 -26 19 -36
3z"/>
<path d="M2441 2073 c-8 -9 -15 -29 -16 -47 -1 -17 -6 -42 -10 -54 -7 -21 -5
-23 16 -20 19 2 24 10 26 33 1 17 0 24 -3 18 -9 -21 -23 -15 -17 8 3 11 11 18
18 15 13 -5 35 12 35 26 0 5 -9 4 -19 -2 -25 -13 -31 -13 -31 0 0 6 7 10 15
10 8 0 15 4 15 9 0 17 -15 19 -29 4z"/>
<path d="M746 2045 c4 -8 1 -15 -6 -15 -7 0 -6 -5 4 -15 8 -8 19 -15 25 -15
16 0 23 18 10 26 -8 4 -9 3 -5 -4 4 -7 2 -12 -5 -12 -7 0 -9 10 -7 25 4 17 1
25 -8 25 -8 0 -11 -6 -8 -15z"/>
<path d="M850 2024 c-19 -7 -31 -13 -27 -13 4 -1 -3 -16 -16 -33 -39 -54 -28
-121 25 -153 40 -24 63 -27 105 -14 48 15 73 53 73 108 -1 50 -10 67 -52 93
-37 24 -67 27 -108 12z m80 -29 c35 -18 50 -43 50 -85 0 -69 -86 -104 -144
-59 -21 16 -26 29 -26 64 0 36 5 48 31 69 35 30 49 32 89 11z"/>
<path d="M855 1910 c-26 -7 -24 -8 20 -9 28 0 57 4 65 9 18 12 -39 12 -85 0z"/>
<path d="M1590 2025 c-7 -8 -17 -12 -24 -8 -6 3 -7 2 -3 -2 4 -5 -3 -15 -15
-22 -23 -13 -23 -13 4 -7 21 5 30 1 43 -20 15 -23 21 -24 68 -19 29 3 54 10
55 15 5 11 100 10 107 -2 3 -5 13 -10 22 -10 14 0 13 3 -3 21 -17 19 -26 20
-74 14 -30 -4 -68 -7 -85 -8 -16 0 -35 -8 -42 -16 -7 -9 -13 -11 -13 -5 0 5 5
15 12 22 9 9 9 18 0 37 -13 28 -34 32 -52 10z m37 -37 c-10 -15 -12 -15 -23 0
-8 11 -8 19 -1 27 17 18 37 -5 24 -27z"/>
<path d="M1819 2025 c-19 -7 -54 -15 -78 -18 -23 -2 -45 -8 -49 -11 -3 -4 7
-5 23 -1 17 3 54 6 82 6 34 0 56 5 60 14 6 11 13 8 30 -11 18 -20 20 -26 8
-31 -8 -3 -15 -12 -15 -19 0 -12 5 -11 26 3 28 18 64 25 64 12 0 -4 9 -5 20
-2 11 3 20 1 20 -5 0 -5 11 -9 24 -9 14 0 23 5 22 12 -3 23 -28 45 -50 45 -16
-1 -14 -4 12 -15 39 -17 42 -30 5 -20 -16 5 -46 11 -68 14 -30 5 -40 11 -39
24 1 9 -2 15 -6 12 -5 -3 -11 -1 -15 5 -8 13 -32 12 -76 -5z"/>
<path d="M1461 1996 c-7 -8 -19 -12 -29 -10 -10 3 -22 -4 -31 -18 -7 -13 -10
-20 -6 -16 5 4 13 1 19 -7 10 -14 16 -13 54 5 38 18 41 22 30 40 -15 24 -22
25 -37 6z"/>
<path d="M2154 1963 c37 -37 13 -44 -25 -7 -26 25 -29 26 -29 8 0 -14 -2 -16
-9 -5 -7 10 -10 11 -16 1 -10 -16 21 -41 41 -33 8 3 14 0 14 -6 0 -6 -4 -11
-9 -11 -5 0 2 -20 16 -46 28 -50 44 -54 18 -5 -14 27 -14 31 0 31 8 0 15 -7
15 -15 0 -8 4 -15 8 -15 5 0 15 -31 22 -70 10 -54 11 -79 2 -109 -15 -47 -15
-81 -2 -81 5 0 13 18 16 40 4 22 11 43 15 46 12 7 11 -39 -1 -70 -13 -35 -4
-33 15 4 21 40 19 67 -5 80 -12 6 -20 21 -20 36 0 16 4 23 12 18 11 -7 9 14
-8 76 -7 22 -6 24 9 11 9 -7 17 -20 17 -27 0 -8 8 -14 18 -15 10 0 12 -3 5 -6
-16 -6 -17 -29 -1 -39 7 -4 8 -3 4 4 -4 7 -4 17 0 24 12 20 11 59 -2 54 -10
-4 -89 79 -89 94 0 3 -4 11 -8 18 -5 6 -5 12 -1 12 11 0 -29 29 -40 30 -5 0 4
-12 18 -27z m38 -60 c17 -15 25 -43 12 -43 -8 0 -43 43 -44 53 0 12 12 8 32
-10z"/>
<path d="M280 1953 c0 -7 7 -13 15 -13 8 0 15 5 15 11 0 6 7 3 16 -5 14 -14
14 -18 1 -31 -12 -11 -16 -12 -20 -2 -2 6 -7 10 -9 7 -3 -3 -2 -14 2 -25 6
-18 8 -18 34 8 23 23 25 29 14 47 -14 22 -68 25 -68 3z"/>
<path d="M1127 1912 c-17 -18 -16 -20 2 -43 13 -17 23 -21 33 -14 9 6 8 4 -2
-5 -34 -34 -17 -38 30 -8 53 35 65 53 25 38 -21 -8 -26 -6 -37 17 -17 34 -30
38 -51 15z"/>
<path d="M2475 1910 c-7 -22 0 -40 16 -40 17 0 21 29 6 45 -14 13 -16 13 -22
-5z"/>
<path d="M1284 1884 c-99 -67 -122 -87 -117 -100 3 -8 15 -14 27 -13 20 0 20
1 1 8 -17 7 -17 8 8 15 15 3 26 12 24 18 -1 7 5 13 13 13 8 1 14 6 13 12 -1 6
4 14 12 17 18 7 20 -15 3 -32 -7 -7 7 -3 29 8 23 11 49 20 57 20 8 0 18 5 21
10 3 6 15 10 26 10 10 0 19 6 19 14 0 12 -6 13 -32 4 -18 -6 -43 -10 -55 -10
-14 0 -25 -8 -29 -20 -5 -16 -8 -18 -15 -7 -10 16 18 42 38 35 7 -3 10 1 6 10
-7 18 -3 19 -49 -12z"/>
<path d="M1648 1903 c-21 -2 -38 -8 -38 -13 0 -5 -7 -7 -15 -4 -8 4 -21 1 -29
-5 -7 -6 -16 -8 -19 -4 -4 3 -12 1 -19 -4 -7 -6 -22 -13 -33 -16 -16 -4 -15
-5 6 -6 14 0 30 -6 37 -13 9 -9 12 -8 13 8 0 10 3 13 6 7 8 -21 57 -15 71 7
13 22 56 27 68 9 5 -8 -3 -10 -25 -7 -18 3 -34 1 -37 -4 -3 -4 29 -8 71 -8 43
0 74 4 71 9 -4 5 0 12 6 14 7 3 4 6 -7 6 -12 1 -27 -5 -35 -11 -8 -7 -6 -3 4
10 23 27 44 28 62 5 13 -17 14 -17 8 2 -7 19 -6 19 15 -2 26 -28 27 -37 1 -30
-11 3 -18 1 -14 -4 3 -5 16 -9 30 -9 14 0 23 -4 20 -9 -3 -5 2 -15 12 -22 15
-13 16 -12 3 4 -8 10 -9 17 -3 17 14 0 76 -33 80 -42 2 -5 9 -8 15 -8 14 0 63
-69 93 -129 7 -13 -6 -55 -51 -171 -8 -19 -19 -34 -24 -32 -6 1 -10 -2 -9 -6
3 -10 -53 -72 -65 -72 -5 0 -5 5 -1 11 3 6 -12 -1 -35 -16 -22 -15 -41 -30
-41 -32 0 -3 12 2 26 12 36 23 41 12 7 -15 -15 -12 -27 -24 -25 -27 2 -3 -14
-16 -35 -29 -21 -13 -31 -24 -23 -24 9 0 29 10 44 23 96 74 147 120 162 147
10 16 22 30 26 30 4 0 5 9 3 20 -2 11 0 20 4 20 12 0 40 66 47 110 4 22 11 40
16 40 14 0 0 -57 -26 -113 -31 -63 -15 -70 21 -10 22 37 29 63 30 113 2 36 3
79 4 96 0 16 -7 47 -17 69 -15 31 -32 45 -89 73 -68 35 -73 36 -200 38 -71 1
-147 0 -167 -3z m370 -59 c21 -4 25 -11 18 -31 -7 -17 -8 -17 -22 1 -7 11 -16
17 -19 15 -2 -3 13 -23 35 -44 l39 -38 7 26 c3 15 10 25 14 22 13 -8 19 -45 8
-52 -6 -3 -8 -1 -4 5 3 6 2 13 -4 17 -5 3 -10 -1 -10 -9 0 -8 5 -18 11 -22 8
-4 7 -9 -2 -15 -11 -6 -11 -11 -1 -21 15 -15 16 -52 1 -43 -5 4 -22 31 -36 61
-25 54 -67 94 -97 94 -9 0 -16 4 -16 9 0 5 -15 15 -32 21 -24 9 -28 14 -16 17
9 2 30 -3 47 -11 36 -19 50 -21 33 -4 -20 20 -14 30 11 16 12 -6 28 -13 35
-14z"/>
<path d="M1414 1848 c-3 -4 -11 -5 -17 -2 -7 4 -9 4 -5 -1 7 -7 -75 -59 -114
-72 -10 -3 -18 -11 -18 -19 0 -8 -6 -11 -15 -8 -8 4 -17 -1 -21 -10 -3 -9 -12
-16 -19 -16 -7 0 -15 -7 -19 -15 -3 -8 -13 -15 -22 -15 -11 0 -14 -5 -10 -16
4 -11 2 -15 -8 -11 -17 7 -59 -40 -50 -55 4 -7 3 -8 -4 -4 -14 9 -70 -79 -94
-149 -10 -27 -18 -73 -18 -102 0 -45 5 -58 32 -89 37 -42 117 -82 129 -63 4 6
12 8 19 4 9 -6 9 -9 -1 -16 -23 -14 202 -2 256 14 28 8 77 22 110 30 221 60
410 246 410 404 0 45 -4 57 -30 83 -33 33 -142 70 -206 70 -49 0 -179 -30
-179 -41 0 -5 -11 -7 -24 -3 -17 4 -27 0 -35 -13 -6 -10 -11 -13 -11 -6 0 7
-36 -9 -81 -35 -101 -59 -183 -142 -199 -203 -16 -60 -7 -119 22 -140 68 -52
288 -45 401 12 79 40 130 94 147 154 11 41 11 52 -1 74 -8 14 -26 31 -39 38
-58 30 -234 5 -263 -37 -8 -11 -17 -17 -20 -14 -13 14 -48 -61 -43 -94 3 -19
1 -30 -5 -27 -5 4 -9 23 -9 43 0 28 -3 33 -10 22 -16 -24 -11 -66 8 -83 24
-22 119 -23 169 -2 48 20 72 42 89 80 11 24 13 26 14 9 0 -22 -43 -87 -76
-115 -56 -47 -196 -65 -244 -32 -35 24 -40 32 -41 83 l-1 45 -14 -53 c-11 -41
-12 -57 -3 -68 8 -10 8 -14 1 -14 -16 0 -32 35 -31 67 l1 28 7 -25 c6 -21 8
-17 13 24 3 26 15 61 27 77 12 16 20 33 17 38 -3 5 2 15 11 22 14 12 16 12 8
0 -6 -10 -4 -12 5 -6 10 6 9 11 -4 21 -10 7 -13 15 -7 18 5 3 12 0 15 -6 3 -9
11 -5 26 12 22 25 50 36 50 19 0 -5 -4 -9 -8 -9 -8 0 -112 -123 -112 -132 0
-3 30 25 68 62 46 45 85 74 125 90 31 13 57 28 57 33 0 10 -32 1 -73 -20 -16
-8 -31 -12 -34 -9 -14 14 201 83 228 74 8 -3 -14 -11 -48 -18 -35 -7 -60 -16
-58 -20 3 -4 35 0 73 10 61 16 74 17 121 4 29 -7 60 -19 68 -26 11 -9 16 -9
23 2 13 21 19 9 26 -45 3 -26 13 -59 22 -73 16 -25 16 -26 -2 -19 -13 5 -17 3
-13 -7 16 -41 -124 -181 -251 -252 -99 -56 -153 -69 -283 -69 -77 0 -91 3
-152 34 -37 19 -79 46 -93 60 -24 23 -26 31 -20 79 9 76 34 117 123 202 91 88
163 137 276 191 45 21 69 36 52 33 -62 -11 -247 -115 -257 -144 -2 -5 -13 -11
-24 -13 -12 -1 -40 -23 -62 -47 -22 -25 -43 -43 -45 -40 -3 3 19 30 48 61 30
31 56 51 59 45 3 -7 5 -7 5 2 1 6 6 12 11 12 19 0 69 43 63 53 -3 5 0 7 8 5 8
-3 21 1 29 8 9 7 42 26 73 42 53 27 56 30 32 34 -14 3 -28 1 -31 -4z m266
-264 c29 -40 31 -48 20 -69 -7 -13 -9 -29 -5 -36 5 -7 4 -10 -2 -6 -6 4 -19
-3 -29 -14 -25 -28 -104 -82 -110 -76 -3 3 7 14 22 26 15 11 23 21 19 21 -5 0
0 10 11 23 46 51 52 117 14 137 -30 16 -47 11 -22 -6 26 -18 27 -26 6 -69 -26
-56 -154 -100 -192 -66 -37 32 -33 56 17 108 25 26 49 47 52 46 3 -1 26 4 50
12 24 7 60 14 80 14 31 1 40 -5 69 -45z m-590 -38 c0 -8 -7 -19 -15 -26 -8 -7
-22 -38 -31 -69 -17 -60 -44 -101 -44 -68 0 10 4 16 9 13 4 -3 8 14 7 39 0 34
5 48 23 64 13 11 21 27 18 34 -6 16 12 39 25 31 4 -3 8 -11 8 -18z m-2 -264
c9 2 18 -5 20 -14 2 -13 -1 -16 -12 -12 -11 4 -16 1 -16 -11 0 -9 -5 -13 -11
-10 -6 4 -8 14 -5 22 3 8 1 11 -4 8 -6 -3 -10 1 -10 9 0 10 -6 13 -15 10 -20
-8 -19 2 3 24 16 17 17 17 25 -5 5 -14 16 -22 25 -21z m78 -43 c3 -5 -13 -9
-35 -9 -23 0 -41 4 -41 10 0 5 7 7 15 4 8 -4 15 -2 15 4 0 12 38 4 46 -9z
m103 -23 c67 -6 79 -16 19 -16 -59 0 -108 10 -108 22 0 5 8 7 18 4 9 -3 41 -8
71 -10z"/>
<path d="M2737 1802 c-15 -17 -16 -21 -3 -31 12 -10 14 -9 9 8 -3 12 -1 21 6
21 6 0 11 -8 12 -17 0 -10 3 -13 5 -6 3 7 1 19 -3 28 -8 14 -11 14 -26 -3z"/>
<path d="M474 1786 c-28 -23 -40 -44 -44 -81 -1 -5 -6 -16 -12 -22 -7 -9 -7
-13 1 -13 6 0 11 -6 11 -14 0 -8 14 -28 31 -45 57 -57 154 -33 179 44 24 74
-17 141 -92 151 -36 4 -48 1 -74 -20z m117 -35 c41 -41 40 -90 -2 -125 -37
-31 -77 -33 -112 -6 -34 27 -43 70 -23 109 31 59 90 69 137 22z"/>
<path d="M542 1679 c18 -7 33 -7 45 0 14 8 9 10 -27 10 -42 -1 -43 -1 -18 -10z"/>
<path d="M2170 1785 c0 -16 -3 -47 -5 -67 -2 -22 0 -38 6 -38 6 0 9 6 6 13 -2
6 -1 21 4 33 4 11 4 36 -1 55 l-8 34 -2 -30z"/>
<path d="M1041 1764 c-12 -15 -21 -32 -21 -38 0 -6 -15 -25 -34 -42 -19 -17
-42 -44 -52 -60 -12 -20 1 -11 39 26 35 34 57 48 57 39 0 -9 -11 -25 -25 -35
-14 -10 -23 -25 -20 -32 3 -7 1 -11 -4 -7 -5 3 -22 -10 -37 -27 -15 -18 -32
-32 -37 -30 -6 2 -5 -3 2 -11 9 -12 8 -16 -5 -21 -9 -4 -14 -12 -10 -22 3 -8
2 -13 -3 -10 -5 3 -16 -10 -25 -29 -10 -20 -21 -33 -26 -30 -4 3 -14 -27 -20
-65 -9 -55 -9 -82 0 -122 10 -40 15 -47 22 -34 5 9 14 14 19 11 5 -4 7 -10 4
-15 -6 -10 51 -31 60 -22 4 4 11 -1 16 -11 6 -9 17 -17 24 -17 8 0 15 -7 15
-16 0 -8 4 -13 9 -10 5 3 14 0 20 -8 7 -8 23 -17 38 -21 29 -7 59 -33 49 -42
-3 -4 -21 -2 -39 4 -45 14 -72 -3 -48 -29 19 -19 49 -27 51 -13 0 6 -8 11 -20
13 -39 6 -20 20 21 15 29 -4 44 -2 51 8 7 11 11 11 15 2 3 -8 15 -11 31 -7 19
4 23 3 14 -4 -9 -6 9 -9 52 -8 36 1 66 3 66 4 0 7 -45 41 -54 42 -4 0 -5 -7
-2 -16 5 -13 3 -14 -6 -7 -7 6 -37 13 -67 17 -96 12 -192 74 -232 151 -13 25
-27 45 -30 45 -3 0 -14 -9 -24 -20 -23 -25 -32 -25 -45 1 -9 17 -8 23 7 35 17
14 17 14 -1 7 -12 -4 -17 -2 -15 6 3 7 8 11 12 9 12 -5 37 52 37 87 0 20 9 45
23 62 12 15 36 47 52 71 15 24 41 52 57 64 22 15 26 23 18 33 -8 10 -8 15 1
21 8 4 9 3 5 -4 -4 -7 -2 -12 4 -12 7 0 10 7 7 15 -4 8 -2 17 3 20 4 3 10 0
12 -6 6 -17 49 5 87 45 26 27 31 36 18 36 -9 0 -17 6 -17 14 0 7 -14 16 -31
20 -45 9 -45 9 -68 -20z m60 -4 c38 -21 12 -79 -31 -65 -22 7 -27 44 -8 63 15
15 15 15 39 2z m-192 -542 l11 -33 -25 28 c-14 16 -23 33 -19 38 9 15 21 2 33
-33z"/>
<path d="M2479 1774 c-17 -21 0 -49 32 -49 18 0 25 6 27 24 6 38 -34 55 -59
25z m39 -32 c-8 -9 -14 -9 -24 -1 -10 8 -10 14 -1 23 16 18 40 -3 25 -22z"/>
<path d="M2393 1726 c-10 -11 -9 -15 2 -20 9 -3 15 1 15 9 0 8 5 15 11 15 6 0
8 -9 4 -21 -5 -15 -4 -19 4 -15 6 4 11 16 11 27 0 22 -29 25 -47 5z"/>
<path d="M2746 1731 c-9 -14 4 -41 19 -41 18 0 26 15 19 34 -7 17 -29 21 -38
7z"/>
<path d="M1758 1683 c6 -2 10 -9 7 -14 -4 -5 0 -6 8 -3 8 3 21 -9 32 -30 18
-33 18 -37 1 -96 -20 -74 -16 -86 10 -28 28 62 25 111 -11 148 -16 16 -36 30
-44 29 -11 0 -12 -2 -3 -6z"/>
<path d="M2822 1650 c1 -3 -2 -13 -6 -22 -11 -25 22 -65 56 -65 29 0 45 24 28
41 -7 7 -16 7 -30 -2 -11 -7 -20 -11 -20 -10 0 2 4 17 9 33 7 27 6 30 -15 30
-12 0 -22 -2 -22 -5z"/>
<path d="M767 1623 c4 -10 11 -22 17 -26 8 -6 7 -10 -1 -14 -7 -2 -13 -11 -13
-19 0 -8 -4 -14 -10 -14 -5 0 -10 7 -10 15 0 8 -5 15 -11 15 -8 0 -8 4 1 15 6
8 10 20 8 27 -3 8 -9 4 -17 -11 -11 -20 -10 -27 8 -52 20 -26 20 -29 4 -37
-10 -5 -36 -10 -57 -11 -22 -1 -43 -4 -48 -7 -4 -3 -8 1 -8 8 0 8 -6 23 -14
33 -12 16 -16 17 -30 6 -22 -19 -20 -48 5 -56 11 -4 18 -12 15 -18 -3 -7 -9
-20 -12 -29 -4 -10 -11 -19 -18 -20 -57 -7 -88 -28 -100 -65 -6 -17 1 -14 29
14 28 28 41 34 65 31 23 -3 30 -1 30 11 0 9 11 30 24 46 21 27 30 30 75 29 28
0 51 3 51 7 0 5 12 15 28 23 20 12 23 15 9 16 -17 0 -17 2 2 26 l20 25 -21 25
c-26 29 -30 30 -21 7z"/>
<path d="M827 1583 c-4 -3 -7 -13 -7 -22 1 -13 2 -13 11 2 6 9 15 15 20 12 5
-4 7 -11 4 -16 -4 -5 -1 -9 4 -9 17 0 13 27 -5 34 -19 7 -19 7 -27 -1z"/>
<path d="M2138 1585 c-4 -4 -4 -13 -2 -20 7 -17 -14 -57 -25 -50 -7 4 -21 -16
-21 -28 0 -1 11 -3 25 -3 20 -2 30 6 45 37 24 46 25 53 6 46 -9 -4 -16 1 -18
9 -2 9 -6 13 -10 9z"/>
<path d="M2690 1560 c0 -15 5 -20 18 -18 9 2 17 10 17 18 0 8 -8 16 -17 18
-13 2 -18 -3 -18 -18z"/>
<path d="M834 1529 c-3 -6 0 -18 8 -26 14 -13 16 -13 21 1 4 9 1 16 -6 16 -8
0 -6 4 3 10 13 8 13 10 -2 10 -9 0 -20 -5 -24 -11z"/>
<path d="M172 1487 c-28 -29 -27 -37 3 -66 25 -23 26 -23 46 -5 35 31 39 56
13 76 -29 23 -36 23 -62 -5z m57 -24 c11 -9 12 -12 3 -13 -7 0 -16 -10 -21
-22 l-8 -23 -7 23 c-4 12 -15 22 -23 22 -12 0 -10 5 8 23 13 12 26 18 28 12 2
-5 11 -15 20 -22z"/>
<path d="M2332 1488 c-7 -7 -12 -18 -12 -24 0 -15 35 -28 50 -19 16 10 12 42
-6 49 -20 8 -18 8 -32 -6z"/>
<path d="M2643 1452 c-25 -4 -123 -106 -123 -128 0 -19 43 -28 68 -15 12 6 34
11 51 11 23 0 42 12 81 52 27 28 50 56 50 62 0 10 -51 -33 -81 -68 -9 -10 -27
-20 -41 -21 -14 -2 -35 -8 -46 -14 -25 -13 -72 -15 -72 -2 0 5 15 21 33 35 17
14 41 35 52 46 25 24 43 25 66 4 11 -10 19 -12 24 -5 3 6 -2 11 -11 11 -28 0
-2 21 38 30 29 7 28 8 -17 7 -27 -1 -60 -3 -72 -5z"/>
<path d="M2023 1373 c-3 -7 -3 -18 0 -25 4 -8 6 -6 6 5 1 9 6 17 12 17 7 0 9
-9 6 -21 -4 -17 -3 -19 6 -10 6 6 21 11 34 11 16 0 23 6 23 19 0 16 -7 19 -41
18 -23 -1 -44 -7 -46 -14z"/>
<path d="M2811 1371 c-10 -7 -11 -13 -2 -27 10 -18 10 -18 11 4 0 12 5 22 11
22 6 0 9 -7 6 -15 -4 -8 -2 -17 2 -20 5 -2 11 4 14 14 3 12 -1 22 -10 25 -18
7 -15 7 -32 -3z"/>
<path d="M1925 1320 c-16 -16 -23 -30 -17 -30 7 0 12 5 12 10 0 6 6 10 14 10
9 0 12 -8 9 -24 -7 -34 11 -39 38 -10 20 21 21 27 9 34 -8 6 -20 8 -27 5 -7
-2 -15 0 -18 5 -4 6 1 10 9 10 9 0 16 5 16 10 0 18 -16 11 -45 -20z"/>
<path d="M2443 1334 c-8 -20 8 -36 26 -25 15 10 8 41 -9 41 -6 0 -13 -7 -17
-16z"/>
<path d="M740 1295 c-16 -19 -3 -37 23 -33 20 3 22 -1 20 -35 -1 -24 2 -35 8
-31 6 3 13 -3 16 -15 3 -11 9 -18 14 -15 5 3 2 15 -5 27 -8 12 -17 42 -21 67
-7 49 -31 64 -55 35z"/>
<path d="M356 1273 c-5 -11 -1 -22 10 -30 21 -15 37 -3 32 23 -4 25 -34 30
-42 7z"/>
<path d="M1648 1233 c-9 -2 -19 -12 -23 -21 -5 -14 -4 -15 6 -4 7 6 17 12 23
12 5 0 -1 -9 -14 -20 -13 -11 -33 -20 -46 -20 -31 0 -117 -30 -126 -43 -3 -6
-26 -11 -50 -12 -63 -3 -145 -17 -130 -23 10 -3 10 -7 0 -19 -11 -14 -6 -15
42 -8 30 4 61 11 70 15 8 5 36 14 62 20 28 8 45 17 41 23 -4 6 0 8 9 4 9 -3
53 13 99 36 52 25 77 43 66 45 -9 2 -15 8 -12 13 4 5 5 8 3 8 -2 -1 -10 -3
-20 -6z"/>
<path d="M250 1191 c0 -12 -6 -21 -13 -21 -14 0 -47 -31 -47 -43 0 -13 29 5
33 21 4 15 5 15 6 0 0 -10 6 -18 12 -18 6 0 9 7 5 15 -4 12 -2 13 12 6 9 -5
29 -8 44 -8 30 2 24 14 -24 48 l-28 20 0 -20z"/>
<path d="M341 1206 c2 -2 23 -15 47 -30 28 -18 42 -22 42 -13 0 7 -17 21 -38
30 -35 16 -61 22 -51 13z"/>
<path d="M1688 1162 c-80 -43 -85 -48 -61 -54 15 -4 30 -13 34 -20 7 -10 9 -9
9 2 0 9 9 16 20 17 11 1 20 -2 20 -8 0 -5 -7 -9 -15 -9 -8 0 -15 -4 -15 -10 0
-5 4 -10 9 -10 13 0 28 22 35 50 3 14 3 19 0 13 -7 -15 -24 -17 -24 -3 0 12
37 50 49 50 5 0 14 7 21 15 17 20 17 20 -82 -33z"/>
<path d="M300 1196 c0 -2 24 -23 53 -47 29 -24 41 -31 28 -16 -24 26 -17 39 7
15 7 -7 12 -9 12 -5 0 9 -76 57 -90 57 -5 0 -10 -2 -10 -4z"/>
<path d="M1665 1186 c-11 -7 -38 -23 -60 -35 -22 -11 -34 -21 -27 -21 20 0
112 49 112 60 0 13 -2 13 -25 -4z"/>
<path d="M2790 1181 c-8 -6 -18 -7 -22 -5 -4 3 -5 -2 -2 -10 4 -10 1 -16 -8
-16 -15 0 -54 -58 -45 -67 9 -8 27 7 27 23 0 8 5 14 10 14 6 0 10 -6 10 -14 0
-8 9 -21 21 -29 l21 -15 -21 -7 c-12 -3 -21 -15 -21 -26 0 -21 -20 -27 -20 -6
-1 6 -12 26 -25 42 -24 29 -25 29 -26 8 -1 -13 -2 -28 -3 -34 -1 -6 -15 -27
-33 -46 -18 -18 -35 -49 -39 -68 -3 -20 -17 -44 -32 -55 -14 -11 -22 -23 -19
-26 3 -3 15 4 27 16 11 11 24 18 29 16 5 -3 11 13 14 35 6 42 30 79 54 79 7 0
13 11 13 24 0 14 5 28 10 31 6 3 10 0 10 -8 0 -8 7 -20 15 -27 23 -19 70 34
70 77 0 18 -3 33 -7 33 -5 0 -8 -5 -8 -11 0 -5 -4 -7 -10 -4 -17 10 -11 25 19
56 28 28 23 39 -9 20z"/>
<path d="M2337 1163 c-10 -9 -8 -43 2 -43 5 0 8 6 7 13 0 6 4 12 9 12 6 0 9
-6 9 -12 -1 -7 2 -10 7 -7 14 9 10 31 -7 38 -19 7 -19 7 -27 -1z"/>
<path d="M447 1153 c-6 -6 6 -14 76 -50 15 -8 27 -17 27 -19 0 -3 -5 -2 -12 2
-7 4 -8 3 -4 -4 4 -7 12 -12 17 -12 11 0 136 -98 156 -121 6 -8 13 -27 16 -44
4 -30 4 -30 6 4 1 29 -6 41 -45 78 -26 24 -42 43 -36 43 6 0 24 -14 41 -31 18
-18 31 -25 31 -17 0 20 -56 71 -69 64 -6 -4 -11 0 -11 9 0 10 5 13 12 9 6 -4
8 -3 5 3 -3 5 -24 8 -47 7 -29 -1 -40 2 -37 10 3 8 -10 18 -31 26 -19 7 -45
21 -56 31 -21 20 -29 23 -39 12z"/>
<path d="M1882 1138 c-18 -18 -15 -55 5 -63 12 -4 24 1 36 16 16 20 16 23 1
40 -20 22 -26 23 -42 7z m32 -42 c-3 -9 -10 -16 -14 -16 -15 0 -20 32 -8 47
10 12 13 12 20 -1 4 -8 5 -21 2 -30z"/>
<path d="M1258 1131 c10 -6 8 -10 -10 -15 -15 -5 -19 -9 -9 -13 7 -3 23 4 34
16 l21 21 -24 0 c-18 0 -21 -3 -12 -9z"/>
<path d="M352 1110 c11 -17 11 -22 0 -29 -7 -4 -14 -17 -17 -30 -4 -20 -1 -22
42 -19 36 2 48 -1 57 -16 15 -26 44 -56 54 -55 14 1 52 -43 47 -55 -3 -6 0 -4
6 5 12 16 16 15 52 -8 22 -14 59 -27 81 -29 l41 -3 -38 8 c-41 9 -154 91 -150
110 2 6 -5 11 -14 11 -21 0 -82 58 -79 74 2 6 1 8 -1 3 -8 -14 -22 4 -17 21 4
12 3 13 -3 4 -8 -10 -15 -8 -35 8 -33 25 -42 25 -26 0z m70 -52 c18 -18 56
-52 83 -76 35 -30 39 -36 15 -20 -44 28 -153 128 -141 128 5 0 24 -15 43 -32z"/>
<path d="M1367 1066 l-49 -11 26 -24 c28 -26 69 -24 80 5 12 32 -5 41 -57 30z"/>
<path d="M856 1018 c4 -12 1 -18 -7 -18 -8 -1 1 -7 20 -15 18 -8 41 -15 50
-14 10 0 11 2 3 6 -6 2 -10 8 -7 13 3 4 -2 10 -10 13 -10 4 -12 1 -9 -11 3 -9
-6 -3 -21 13 -14 17 -23 22 -19 13z"/>
<path d="M2272 993 c-26 -13 -55 -54 -41 -60 2 -1 -7 -13 -20 -27 -24 -26 -32
-79 -14 -97 5 -5 7 7 5 26 -3 25 1 42 14 56 10 11 23 35 29 52 12 38 55 58 85
39 11 -7 34 -11 52 -11 20 1 25 3 13 6 -11 2 -36 10 -56 18 -30 11 -40 11 -67
-2z"/>
<path d="M730 951 c15 -29 12 -67 -5 -81 -22 -18 -92 -14 -123 8 -45 31 -50
32 -56 16 -3 -8 -2 -13 3 -9 5 3 17 -2 25 -11 9 -9 22 -17 29 -18 6 -1 17 -4
22 -8 11 -6 49 -11 78 -9 45 3 77 87 45 119 -19 19 -30 14 -18 -7z"/>
<path d="M999 879 c-49 -13 -70 -33 -84 -84 -25 -89 -10 -120 74 -161 59 -29
142 10 157 73 4 16 11 31 17 34 5 4 4 15 -3 29 -6 12 -9 28 -6 36 3 7 2 13 -2
11 -4 -1 -21 12 -37 29 -31 33 -74 45 -116 33z m97 -53 c45 -45 48 -101 7
-146 -70 -77 -183 -26 -183 82 0 45 56 98 105 98 29 0 45 -8 71 -34z"/>
<path d="M992 781 c6 -20 49 -30 90 -22 40 8 20 17 -37 16 -22 0 -44 5 -48 10
-5 6 -7 4 -5 -4z"/>
<path d="M1003 733 c10 -16 75 -25 95 -14 15 9 13 10 -9 11 -15 0 -41 3 -59 7
-22 4 -31 3 -27 -4z"/>
<path d="M1295 851 c-3 -5 2 -17 11 -26 19 -18 47 -3 37 21 -6 16 -39 19 -48
5z"/>
<path d="M2430 821 c-19 -10 -34 -21 -32 -25 3 -8 -23 -36 -33 -36 -12 0 -66
-42 -61 -47 3 -3 17 4 32 16 15 11 34 21 43 21 9 0 22 13 28 30 12 33 54 54
89 46 13 -4 26 -2 29 4 11 17 -58 11 -95 -9z"/>
<path d="M2281 658 c-3 -52 -5 -55 -39 -63 -15 -3 -36 -14 -47 -23 -22 -18
-30 -58 -14 -67 5 -4 9 5 9 19 0 16 9 31 23 40 28 18 81 30 73 17 -4 -5 -2
-12 4 -16 11 -7 12 -3 14 77 1 67 -19 81 -23 16z"/>
<path d="M1483 608 c-19 -25 -22 -47 -7 -59 12 -10 13 -9 8 5 -3 9 -2 16 4 16
6 0 12 -5 14 -10 2 -6 8 -2 15 9 10 15 9 22 -6 35 -14 13 -20 14 -28 4z"/>
<path d="M1552 598 c-15 -15 4 -49 23 -42 19 8 20 40 1 47 -7 3 -18 1 -24 -5z"/>
<path d="M1953 509 c-6 -6 -9 -19 -5 -28 5 -14 4 -14 -13 -1 -10 8 -16 10 -12
3 4 -7 0 -16 -10 -22 -10 -6 -13 -11 -7 -11 5 0 15 5 22 12 9 9 12 9 12 0 0
-11 22 -1 59 25 5 4 -20 33 -28 33 -4 0 -12 -5 -18 -11z"/>
<path d="M1503 494 c-8 -22 18 -37 36 -20 7 8 10 19 7 25 -10 16 -36 13 -43
-5z"/>
<path d="M1003 478 c-24 -32 -23 -36 9 -35 26 2 33 6 33 22 0 23 -27 32 -42
13z"/>
<path d="M1853 460 c-27 -11 -30 -35 -7 -44 19 -7 34 0 34 17 0 8 -3 7 -9 -2
-5 -8 -14 -10 -21 -6 -9 6 -6 13 11 26 27 21 25 22 -8 9z"/>
<path d="M2016 405 c4 -9 0 -15 -9 -15 -9 0 -19 -5 -23 -11 -5 -8 1 -10 19 -7
15 3 28 0 30 -6 3 -7 9 -6 18 3 9 9 9 11 1 7 -7 -5 -16 2 -22 18 -5 14 -12 26
-14 26 -3 0 -3 -7 0 -15z"/>
<path d="M1033 373 c-18 -7 -16 -42 3 -50 22 -8 37 11 29 36 -6 21 -11 23 -32
14z"/>
<path d="M1251 346 c-20 -22 -21 -25 -6 -40 19 -18 35 -21 35 -5 0 5 4 8 9 4
20 -12 20 15 0 29 -12 8 -18 19 -14 25 11 18 0 12 -24 -13z"/>
<path d="M1380 354 c-7 -8 -9 -14 -4 -15 5 0 0 -4 -11 -9 -19 -8 -19 -9 3 -9
12 -1 22 -7 22 -13 0 -9 4 -8 10 2 9 13 10 13 10 0 1 -12 2 -12 10 2 20 33
-17 71 -40 42z"/>
<path d="M1884 335 c-4 -8 -4 -21 -1 -29 3 -7 0 -19 -6 -25 -7 -7 3 -5 21 5
18 9 42 14 53 11 27 -7 23 6 -6 20 -14 6 -25 7 -25 2 0 -5 -7 -9 -15 -9 -8 0
-15 7 -15 16 0 8 5 12 10 9 6 -3 10 -1 10 4 0 16 -20 13 -26 -4z"/>
<path d="M1302 285 c4 -4 4 -13 -2 -19 -12 -15 1 -35 26 -40 30 -6 24 33 -7
53 -13 8 -21 11 -17 6z"/>
<path d="M1386 233 c-16 -22 -17 -27 -4 -39 18 -19 48 -8 48 17 0 10 -4 19 -9
19 -5 0 -11 6 -13 14 -2 10 -9 7 -22 -11z"/>
<path d="M1840 230 c0 -5 -6 -10 -14 -10 -8 0 -16 -7 -20 -15 -8 -21 6 -19 32
5 24 23 27 30 12 30 -5 0 -10 -4 -10 -10z"/>
<path d="M1920 206 c0 -8 6 -17 13 -19 10 -4 10 -6 0 -6 -7 -1 -13 -6 -13 -12
0 -8 5 -8 15 1 8 7 15 18 15 25 0 7 -7 15 -15 19 -9 3 -15 0 -15 -8z"/>
<path d="M288 953 c6 -2 12 -11 12 -19 0 -8 5 -14 10 -14 6 0 10 -9 10 -19 0
-11 5 -23 12 -27 8 -5 9 2 4 27 -6 33 -29 60 -50 58 -6 0 -5 -3 2 -6z"/>
</g>
</svg>
